<svg width="318" height="235" viewBox="0 0 318 235" fill="none" xmlns="http://www.w3.org/2000/svg">
<g clip-path="url(#clip0_29_26)">
<path d="M210.15 20.48C195.443 23.9266 180.86 27.4066 166.4 30.92C164.55 31.37 163.7 32.45 163.23 34.16C163.183 34.3298 163.09 34.4835 162.962 34.6041C162.833 34.7247 162.674 34.8076 162.502 34.8438C162.329 34.8799 162.15 34.8679 161.984 34.809C161.818 34.7501 161.671 34.6467 161.56 34.51C160.14 32.72 158.55 31.29 156.13 30.82C150.983 29.8 145.86 28.6866 140.76 27.48C138.32 26.9 136.43 25.53 133.96 25.31C126.807 24.67 119.567 23.44 112.24 21.62" stroke="#B8E7F5" stroke-width="2"/>
<path d="M314.48 179.72C314.947 179.673 315.113 179.93 314.98 180.49" stroke="#CF7F7F" stroke-width="2"/>
<path d="M210.15 20.48C195.443 23.9266 180.86 27.4066 166.4 30.92C164.55 31.37 163.7 32.45 163.23 34.16C163.183 34.3298 163.09 34.4835 162.962 34.6041C162.833 34.7247 162.674 34.8076 162.502 34.8437C162.329 34.8799 162.15 34.8679 161.984 34.809C161.818 34.7501 161.671 34.6467 161.56 34.51C160.14 32.72 158.55 31.29 156.13 30.82C150.983 29.8 145.86 28.6866 140.76 27.48C138.32 26.9 136.43 25.53 133.96 25.31C126.807 24.67 119.567 23.44 112.24 21.62C115.807 20.02 118.303 19.0333 119.73 18.66C132.3 15.41 144.73 11.68 157.4 8.80997C162.1 7.74997 169.66 9.66997 173.32 10.65C185.48 13.89 197.757 17.1666 210.15 20.48Z" fill="#72D0ED"/>
<path d="M210.15 20.48L218.4 21.9C218.481 21.9162 218.556 21.9594 218.611 22.0223C218.666 22.0853 218.698 22.1645 218.703 22.2468C218.707 22.3292 218.684 22.4099 218.636 22.4759C218.588 22.5418 218.519 22.5891 218.44 22.61L195.03 28.81C194.683 28.9033 194.527 29.1266 194.56 29.48C195.04 35.4533 195.417 41.4 195.69 47.32C195.93 52.32 193.81 55.54 189.29 57.23C180.383 60.5633 171.627 63.7767 163.02 66.87C162.356 67.1043 161.637 67.1287 160.96 66.94C151.653 64.3133 142.577 61.1666 133.73 57.5C129.62 55.8 127.35 53.27 127.22 48.56C127.04 42.2133 126.963 35.8833 126.99 29.57C126.993 29.3679 126.928 29.1706 126.804 29.0107C126.681 28.8508 126.506 28.7376 126.31 28.69L103.49 23.08C102.67 22.8733 102.68 22.7233 103.52 22.63L112.24 21.62C119.567 23.44 126.807 24.67 133.96 25.31C136.43 25.53 138.32 26.9 140.76 27.48C145.86 28.6866 150.983 29.8 156.13 30.82C158.55 31.29 160.14 32.72 161.56 34.51C161.671 34.6467 161.818 34.7501 161.984 34.809C162.15 34.8679 162.329 34.8799 162.502 34.8438C162.674 34.8076 162.833 34.7247 162.962 34.6041C163.09 34.4835 163.183 34.3298 163.23 34.16C163.7 32.45 164.55 31.37 166.4 30.92C180.86 27.4066 195.443 23.9266 210.15 20.48Z" fill="#FDFDFD"/>
<path d="M100.97 105.6C102.62 103.14 103.88 100.08 105.7 98.0101C123.59 77.6301 152.06 72.0301 177.83 75.9901C197.01 78.9368 211.357 88.6868 220.87 105.24C220.921 105.331 221 105.402 221.096 105.443C221.192 105.484 221.298 105.491 221.399 105.465C221.5 105.439 221.589 105.38 221.652 105.298C221.716 105.215 221.75 105.114 221.75 105.01V53.2301C221.75 53.0652 221.703 52.9031 221.615 52.7619C221.527 52.6206 221.4 52.5058 221.25 52.4301C210.9 47.2801 214.59 32.3701 225.8 33.5101C231.407 34.0834 234.243 37.3768 234.31 43.3901C234.36 47.7701 232.21 49.8001 228.76 51.8301C228.617 51.9151 228.498 52.0363 228.416 52.1818C228.334 52.3273 228.29 52.4922 228.29 52.6601L228.15 116.42C228.15 116.567 228.22 116.613 228.36 116.56C228.467 116.513 228.577 116.473 228.69 116.44C228.743 116.42 228.773 116.36 228.78 116.26C228.873 113.833 229.35 111.493 230.21 109.24C230.352 108.867 230.63 108.557 230.99 108.37C245.16 100.92 254.24 118.12 254.36 129.7C254.467 139.6 254.523 149.503 254.53 159.41C254.53 164.41 254.06 168.087 253.12 170.44C251.38 174.8 243.99 184.53 238.36 179.86C234.45 176.63 237.75 171.29 237.75 167.18C237.75 152.7 237.75 138.223 237.75 123.75C237.75 122.61 237.63 121.607 237.39 120.74C237.29 120.38 237.053 120.197 236.68 120.19C194.493 119.69 147.517 119.667 95.7501 120.12C91.4401 120.15 84.9801 119.73 84.9801 125.5C85.0001 140.75 84.49 156.25 85.34 171.46C85.3597 171.791 85.4822 172.106 85.6901 172.36C87.3101 174.39 89.49 176.63 87.17 178.64C79.83 184.99 72.1301 177.11 69.5001 170.66C68.6734 168.627 68.2601 165.26 68.2601 160.56C68.2601 150.247 68.2467 139.933 68.2201 129.62C68.2134 126.093 68.6101 123.227 69.4101 121.02C72.6001 112.24 78.74 103.3 89.45 108.84C90.96 109.62 92.17 110.83 93.63 111.9C93.93 112.113 94.0767 112.037 94.0701 111.67L93.8301 53.1801C93.8301 52.7934 93.6634 52.5001 93.3301 52.3001C79.5901 43.9801 92.7201 27.6101 103.04 34.6301C109.91 39.3201 108.44 48.5301 101.28 52.5401C100.987 52.7001 100.84 52.9468 100.84 53.2801L100.69 105.51C100.69 105.843 100.783 105.873 100.97 105.6Z" fill="#FDFDFD"/>
<path d="M140.56 139.94C144.24 142.45 144.83 146.22 145.06 150.66C145.66 162.08 134.93 168.26 124.72 164.77C113.35 160.88 110.16 143.5 122.27 138.3C128.777 135.507 134.873 136.053 140.56 139.94ZM135.144 156.456C136.536 155.275 137.369 153.553 137.462 151.667C137.554 149.781 136.898 147.887 135.637 146.4C135.013 145.664 134.259 145.05 133.418 144.594C132.578 144.137 131.667 143.847 130.739 143.74C129.81 143.632 128.881 143.71 128.006 143.968C127.13 144.226 126.325 144.66 125.636 145.244C124.244 146.425 123.411 148.147 123.318 150.033C123.226 151.919 123.882 153.813 125.143 155.3C125.767 156.036 126.521 156.65 127.361 157.106C128.202 157.563 129.112 157.853 130.041 157.96C130.97 158.068 131.898 157.99 132.774 157.732C133.65 157.474 134.455 157.04 135.144 156.456Z" fill="#111530"/>
<path d="M210.199 153.693C209.736 157.57 207.638 161.09 204.365 163.48C201.092 165.87 196.913 166.933 192.747 166.437C190.684 166.191 188.686 165.569 186.868 164.607C185.05 163.645 183.447 162.362 182.15 160.831C180.853 159.3 179.888 157.55 179.31 155.683C178.732 153.815 178.552 151.866 178.781 149.947C179.243 146.07 181.342 142.55 184.615 140.16C187.887 137.77 192.067 136.707 196.233 137.204C198.296 137.45 200.293 138.071 202.112 139.033C203.93 139.995 205.533 141.278 206.83 142.809C208.127 144.34 209.092 146.09 209.67 147.957C210.248 149.825 210.428 151.774 210.199 153.693ZM202.924 154.473C203.212 153.575 203.304 152.624 203.194 151.674C203.084 150.724 202.775 149.793 202.284 148.935C201.793 148.077 201.129 147.309 200.332 146.674C199.534 146.039 198.618 145.549 197.635 145.234C195.65 144.597 193.515 144.706 191.7 145.537C189.885 146.368 188.538 147.854 187.956 149.667C187.668 150.565 187.576 151.516 187.686 152.466C187.796 153.416 188.105 154.347 188.596 155.205C189.087 156.063 189.751 156.831 190.548 157.466C191.346 158.102 192.262 158.591 193.245 158.906C195.23 159.544 197.365 159.435 199.18 158.603C200.995 157.772 202.342 156.286 202.924 154.473Z" fill="#111530"/>
<path d="M314.48 179.72C314.947 179.673 315.113 179.93 314.98 180.49C305.727 190.797 297.69 198.503 290.87 203.61C285.67 207.51 280.263 212.103 274.65 217.39C266.19 225.36 258.17 227.47 248.14 220.56C237.85 213.47 227.71 207.02 216.96 200.58C216.667 200.4 216.38 200.413 216.1 200.62C211.68 203.85 205.94 206.75 202.21 208.91C194.39 213.437 186.64 218.073 178.96 222.82C166.02 230.82 158.34 231.47 145.46 223.54C133.14 215.95 121 208.15 108.18 201.4C107.646 201.121 107.048 200.989 106.447 201.017C105.846 201.046 105.264 201.233 104.76 201.56C102.68 202.907 100.52 204.287 98.28 205.7C94.1 208.33 89.56 212.12 84.83 214.86C74.47 220.85 65.77 217.46 57.62 209.89C54.58 207.06 50.66 204.52 47.59 201.26C40.38 193.62 32.37 186.68 24.81 179.38C21.36 176.05 14.39 170.59 10.1 165.06C10.0468 164.989 10.0143 164.904 10.0063 164.816C9.99836 164.727 10.0153 164.638 10.0551 164.56C10.0949 164.481 10.156 164.416 10.2312 164.372C10.3064 164.327 10.3927 164.306 10.48 164.31C10.66 164.317 10.87 164.43 11.11 164.65C14.2567 167.577 17.6367 170.177 21.25 172.45C33.2 179.95 44.65 187.98 56.29 195.93C60.86 199.05 69.45 205.67 74.63 202.32C81.0233 198.18 87.2533 193.813 93.32 189.22C101.11 183.31 107.48 180.22 116.05 186.02C130.5 195.79 145.76 204.29 161.11 212.49C161.524 212.708 161.986 212.819 162.453 212.812C162.919 212.805 163.376 212.68 163.78 212.45C178.393 204.163 192.967 195.443 207.5 186.29C213.33 182.61 218.69 180.99 224.46 185.21C236.46 193.98 248.24 203.89 261.72 210.26C262.533 210.647 263.39 210.683 264.29 210.37C281.95 204.23 300.91 192.23 314.48 179.72Z" fill="#FDFDFD"/>
</g>
<defs>
<clipPath id="clip0_29_26">
<rect width="318" height="235" fill="white"/>
</clipPath>
</defs>
</svg>
