<?xml version="1.0" encoding="UTF-8" standalone="no"?>
<!DOCTYPE svg PUBLIC "-//W3C//DTD SVG 1.1//EN" "http://www.w3.org/Graphics/SVG/1.1/DTD/svg11.dtd">
<svg xmlns="http://www.w3.org/2000/svg" version="1.1" viewBox="0.00 0.00 1024.00 1024.00">
<g stroke-width="2.00" fill="none" stroke-linecap="butt">
<path stroke="#adb7e0" vector-effect="non-scaling-stroke" d="
  M 448.36 336.06
  L 436.86 338.05
  A 0.10 0.10 0.0 0 0 436.85 338.25
  L 468.65 346.62
  Q 469.24 346.78 469.18 347.39
  Q 468.05 360.18 467.50 373.01
  C 467.28 378.15 471.80 382.37 476.42 383.97
  Q 492.97 389.70 509.47 395.58
  Q 511.15 396.17 511.75 396.01
  Q 532.71 390.11 546.70 384.72
  C 552.48 382.49 556.40 378.36 556.27 371.73
  Q 556.07 361.48 556.43 347.74
  A 1.05 1.03 75.5 0 1 556.92 346.89
  C 559.14 345.56 561.78 345.26 564.07 344.69
  Q 577.45 341.38 590.79 338.69
  Q 594.32 337.98 590.76 338.35
  Q 585.91 338.87 581.21 337.48"
/>
<path stroke="#68a4d9" vector-effect="non-scaling-stroke" d="
  M 581.21 337.48
  Q 554.38 330.33 528.30 323.61
  C 523.76 322.44 515.56 318.75 510.85 319.97
  Q 482.92 327.17 454.93 333.90
  Q 451.70 334.67 448.36 336.06"
/>
<path stroke="#b8eaf6" vector-effect="non-scaling-stroke" d="
  M 581.21 337.48
  Q 563.42 340.41 548.81 341.62
  Q 544.93 341.95 542.13 344.16
  A 2.08 2.06 20.8 0 1 541.23 344.56
  C 532.53 346.10 516.57 347.87 513.02 352.40
  C 512.16 353.49 511.18 354.13 509.90 353.59
  Q 509.43 353.39 509.25 352.91
  L 508.35 350.48
  Q 508.16 349.96 507.62 349.84
  L 448.36 336.06"
/>
<path stroke="#adb7e0" vector-effect="non-scaling-stroke" d="
  M 590.48 446.49
  C 581.28 426.82 557.87 414.11 537.61 409.83
  C 521.35 406.39 501.25 405.97 485.26 409.49
  Q 451.37 416.96 433.92 446.56
  A 0.22 0.21 60.3 0 1 433.52 446.45
  L 433.49 378.50
  Q 433.49 377.93 434.00 377.68
  C 442.65 373.51 444.64 364.25 439.24 356.83
  C 432.84 348.05 419.34 352.57 417.87 363.01
  Q 416.50 372.82 425.01 376.76
  Q 425.49 376.98 425.49 377.50
  Q 425.45 417.22 425.81 456.93
  Q 425.82 458.22 425.34 460.95
  Q 425.08 462.45 424.83 460.95
  C 423.55 453.36 424.19 448.63 414.54 447.97
  C 403.79 447.24 396.04 457.82 393.04 466.77
  Q 391.72 470.71 391.54 477.43
  Q 390.63 509.92 391.32 522.20
  Q 392.06 535.16 402.45 542.84
  C 407.98 546.92 414.87 544.31 415.29 537.45
  C 415.52 533.65 413.52 529.72 413.52 525.57
  Q 413.46 495.86 413.52 465.95
  Q 413.52 465.40 414.06 465.40
  C 470.02 464.94 520.58 464.49 597.08 465.20
  C 600.89 465.24 609.10 465.32 610.29 469.86
  Q 610.45 470.45 610.47 475.15
  Q 610.62 502.21 610.37 529.27
  C 610.34 532.62 608.82 534.75 606.90 537.23
  A 2.50 2.50 0.0 0 0 606.87 540.24
  Q 612.56 547.96 621.63 542.65
  C 631.63 536.79 633.01 526.02 632.74 515.23
  C 632.38 500.76 632.50 486.30 632.49 471.83
  C 632.48 466.82 629.11 461.38 626.59 457.22
  C 619.60 445.62 608.21 446.30 599.37 455.68
  Q 598.87 456.21 598.88 455.48
  L 599.28 379.12
  A 2.65 2.64 -16.3 0 1 600.51 376.89
  C 608.05 372.07 610.64 361.33 603.11 355.28
  C 589.73 344.55 576.41 360.97 584.95 373.50
  C 586.05 375.12 588.29 376.24 589.91 377.51
  Q 590.30 377.82 590.38 378.31
  Q 590.80 381.04 590.80 383.75
  Q 590.81 415.09 590.74 446.43
  Q 590.74 447.05 590.48 446.49"
/>
<path stroke="#374379" vector-effect="non-scaling-stroke" d="
  M 571.8009 500.9667
  A 19.79 19.12 -12.5 0 0 548.3417 486.5832
  A 19.79 19.12 -12.5 0 0 533.1591 509.5333
  A 19.79 19.12 -12.5 0 0 556.6183 523.9168
  A 19.79 19.12 -12.5 0 0 571.8009 500.9667"
/>
<path stroke="#374379" vector-effect="non-scaling-stroke" d="
  M 488.7125 502.1276
  A 20.02 19.15 -12.0 0 0 465.1485 487.5585
  A 20.02 19.15 -12.0 0 0 449.5475 510.4524
  A 20.02 19.15 -12.0 0 0 473.1115 525.0215
  A 20.02 19.15 -12.0 0 0 488.7125 502.1276"
/>
<path stroke="#adb7e0" vector-effect="non-scaling-stroke" d="
  M 316.94 548.03
  Q 339.45 569.87 363.53 589.97
  C 373.72 598.48 383.67 605.76 396.81 597.27
  Q 418.42 583.32 439.69 569.08
  A 0.63 0.63 0.0 0 1 440.38 569.07
  Q 464.51 584.15 488.96 598.31
  Q 500.45 604.96 505.80 606.08
  Q 516.71 608.37 527.23 602.50
  Q 547.12 591.37 571.38 575.67
  C 575.45 573.03 582.21 568.07 587.09 571.54
  C 600.23 580.87 616.34 597.87 634.17 590.56
  Q 638.60 588.74 646.97 581.17
  Q 675.45 555.40 703.06 528.70
  C 705.27 526.56 707.39 524.69 709.13 522.15
  A 0.31 0.31 0.0 0 0 708.69 521.73
  Q 680.87 542.23 652.01 560.70
  C 645.48 564.88 639.33 569.11 632.31 572.52
  C 630.13 573.59 627.42 573.32 625.51 572.27
  Q 611.67 564.73 596.95 552.54
  C 584.09 541.90 575.08 548.18 561.87 556.41
  Q 537.03 571.89 511.73 585.83
  A 2.32 2.32 0.0 0 1 509.41 585.79
  Q 479.81 567.98 449.95 549.78
  C 444.97 546.74 436.60 545.05 431.46 548.93
  Q 408.79 566.03 384.99 581.50
  Q 381.55 583.74 378.06 582.47
  C 354.22 573.76 330.19 557.20 311.02 540.78
  A 0.37 0.37 0.0 0 0 310.48 541.27
  C 312.31 543.94 314.87 546.03 316.94 548.03"
/>
<path stroke="#adb7e0" vector-effect="non-scaling-stroke" d="
  M 494.24 648.75
  A 0.59 0.58 76.2 0 1 493.39 648.23
  L 493.19 622.22
  Q 493.19 621.75 492.72 621.75
  L 475.51 621.75
  Q 475.03 621.75 475.03 622.24
  L 475.64 704.25
  Q 475.65 705.60 477.00 705.61
  L 493.24 705.77
  Q 493.75 705.78 493.75 705.26
  L 493.75 663.48
  A 0.87 0.86 78.9 0 1 494.28 662.68
  C 500.37 660.17 510.57 659.64 511.88 668.42
  Q 512.42 672.06 512.46 678.00
  Q 512.57 691.65 512.83 705.38
  A 0.43 0.43 0.0 0 0 513.27 705.81
  L 529.74 705.44
  Q 530.28 705.42 530.28 704.89
  Q 530.15 685.70 530.05 666.49
  C 529.95 647.01 509.05 641.21 494.24 648.75"
/>
<path stroke="#68a4d9" vector-effect="non-scaling-stroke" d="
  M 674.05 692.43
  C 674.10 708.09 689.95 706.89 700.45 705.90
  A 0.97 0.97 0.0 0 0 701.33 705.03
  L 701.96 698.95
  A 0.71 0.70 -77.9 0 0 701.49 698.22
  C 695.05 695.96 690.53 694.48 690.53 686.26
  Q 690.53 659.62 690.47 633.00
  C 690.45 627.38 689.92 623.48 683.54 623.24
  C 673.83 622.88 673.39 630.70 673.73 638.19
  C 674.54 656.17 673.99 674.42 674.05 692.43"
/>
<path stroke="#adb7e0" vector-effect="non-scaling-stroke" d="
  M 358.40 663.00
  C 360.17 650.20 356.81 629.56 340.24 627.74
  Q 332.04 626.83 319.49 627.06
  C 313.09 627.18 303.43 632.43 303.45 639.50
  Q 303.56 672.43 303.82 705.31
  A 0.45 0.45 0.0 0 0 304.27 705.75
  L 320.77 705.75
  A 0.51 0.51 0.0 0 0 321.28 705.23
  L 320.92 682.77
  A 1.06 1.05 0.3 0 1 322.01 681.70
  C 337.81 682.16 355.62 683.10 358.40 663.00"
/>
<path stroke="#68a4d9" vector-effect="non-scaling-stroke" d="
  M 562.59 681.43
  C 575.56 681.99 593.19 682.94 598.05 667.09
  C 603.02 650.85 598.23 627.41 576.99 627.26
  Q 565.39 627.18 553.79 627.28
  C 550.93 627.31 549.03 627.75 547.82 630.32
  C 545.46 635.32 545.86 642.80 545.85 648.25
  Q 545.76 676.62 545.73 705.02
  Q 545.73 705.54 546.25 705.59
  C 549.02 705.86 562.19 707.35 562.10 702.51
  Q 561.90 692.25 561.98 682.01
  A 0.59 0.58 1.0 0 1 562.59 681.43"
/>
<path stroke="#adb7e0" vector-effect="non-scaling-stroke" d="
  M 452.02 660.50
  L 461.03 660.50
  Q 461.56 660.50 461.55 659.97
  L 461.38 647.84
  A 0.55 0.55 0.0 0 0 460.84 647.29
  L 451.31 647.16
  Q 450.74 647.16 450.75 646.59
  C 450.83 641.85 451.94 635.94 446.53 633.96
  C 437.40 630.62 432.41 638.41 433.98 646.67
  A 0.49 0.49 0.0 0 1 433.50 647.25
  L 429.14 647.25
  Q 428.53 647.25 428.54 647.86
  L 428.70 659.85
  Q 428.71 660.50 429.35 660.50
  L 433.06 660.50
  Q 433.65 660.50 433.66 661.09
  Q 433.97 676.01 434.04 690.95
  C 434.11 708.70 449.38 707.32 462.20 706.35
  Q 462.84 706.30 462.82 705.66
  L 462.56 695.33
  Q 462.54 694.74 461.95 694.76
  C 451.20 695.11 452.00 688.18 451.73 679.42
  Q 451.44 670.21 451.50 661.01
  Q 451.51 660.50 452.02 660.50"
/>
<path stroke="#adb7e0" vector-effect="non-scaling-stroke" d="
  M 372.44 664.19
  Q 379.18 664.11 383.89 662.42
  C 387.87 660.99 394.50 659.05 397.88 662.72
  Q 400.76 665.84 399.49 670.81
  Q 399.37 671.27 398.91 671.40
  C 395.73 672.30 391.59 671.70 386.98 672.05
  C 373.55 673.06 364.60 680.56 367.35 695.05
  C 369.82 708.05 382.93 708.29 393.69 706.81
  Q 394.51 706.70 395.07 706.08
  Q 395.40 705.72 395.89 705.71
  L 417.25 705.48
  Q 417.86 705.47 417.85 704.86
  Q 417.61 685.91 417.34 666.96
  C 417.01 644.12 386.95 643.41 372.71 651.80
  A 2.42 2.42 0.0 0 0 371.51 653.89
  L 371.50 663.26
  Q 371.50 664.21 372.44 664.19"
/>
<path stroke="#68a4d9" vector-effect="non-scaling-stroke" d="
  M 638.94 660.04
  C 645.14 660.24 644.57 666.55 643.21 670.75
  Q 643.06 671.24 642.55 671.30
  C 634.91 672.20 626.97 671.31 619.25 671.34
  C 609.78 671.37 604.59 690.56 609.34 697.20
  Q 615.32 705.53 626.33 705.36
  Q 642.89 705.09 659.29 704.91
  A 1.25 1.24 89.8 0 0 660.52 703.66
  C 660.46 692.74 660.33 681.75 660.70 670.81
  C 661.65 642.30 636.91 647.07 615.60 647.32
  Q 615.03 647.33 615.03 647.90
  L 614.94 662.30
  Q 614.93 662.90 615.52 662.74
  C 618.01 662.07 620.46 661.04 622.81 660.75
  Q 630.85 659.78 638.94 660.04"
/>
<path stroke="#374379" vector-effect="non-scaling-stroke" d="
  M 559.4837 499.2334
  A 9.74 9.12 -38.3 0 0 546.1876 498.1128
  A 9.74 9.12 -38.3 0 0 544.1963 511.3066
  A 9.74 9.12 -38.3 0 0 557.4924 512.4272
  A 9.74 9.12 -38.3 0 0 559.4837 499.2334"
/>
<path stroke="#374379" vector-effect="non-scaling-stroke" d="
  M 477.2011 503.1828
  A 10.10 9.13 -21.9 0 0 464.4246 498.4789
  A 10.10 9.13 -21.9 0 0 458.4589 510.7172
  A 10.10 9.13 -21.9 0 0 471.2354 515.4211
  A 10.10 9.13 -21.9 0 0 477.2011 503.1828"
/>
<path stroke="#adb7e0" vector-effect="non-scaling-stroke" d="
  M 322.05 643.46
  L 321.93 666.38
  A 0.92 0.92 0.0 0 0 322.85 667.31
  L 331.62 667.35
  A 8.88 8.47 -89.7 0 0 340.13 658.52
  L 340.17 651.52
  A 8.88 8.47 -89.7 0 0 331.74 642.59
  L 322.97 642.55
  A 0.92 0.92 0.0 0 0 322.05 643.46"
/>
<path stroke="#68a4d9" vector-effect="non-scaling-stroke" d="
  M 562.36 642.25
  L 562.36 667.59
  A 0.87 0.87 0.0 0 0 563.23 668.46
  L 573.30 668.46
  A 10.72 9.92 90.0 0 0 583.22 657.74
  L 583.22 652.10
  A 10.72 9.92 90.0 0 0 573.30 641.38
  L 563.23 641.38
  A 0.87 0.87 0.0 0 0 562.36 642.25"
/>
<path stroke="#adb7e0" vector-effect="non-scaling-stroke" d="
  M 386.94 693.41
  Q 393.91 696.33 400.47 691.91
  A 0.90 0.88 -18.6 0 0 400.86 691.14
  L 400.46 681.37
  Q 400.44 680.88 399.95 680.89
  C 395.52 680.92 385.59 682.30 383.51 686.96
  C 382.08 690.17 384.07 692.21 386.94 693.41"
/>
<path stroke="#68a4d9" vector-effect="non-scaling-stroke" d="
  M 643.57 692.43
  L 642.97 680.61
  A 0.23 0.23 0.0 0 0 642.73 680.39
  L 642.62 680.39
  A 16.36 1.03 -2.9 0 0 626.33 682.25
  L 626.85 692.48
  A 16.36 1.03 -2.9 0 0 643.24 692.68
  L 643.35 692.67
  A 0.23 0.23 0.0 0 0 643.57 692.43"
/>
</g>
<path fill="#5c71c2" d="
  M 0.00 0.00
  L 1024.00 0.00
  L 1024.00 1024.00
  L 0.00 1024.00
  L 0.00 0.00
  Z
  M 448.36 336.06
  L 436.86 338.05
  A 0.10 0.10 0.0 0 0 436.85 338.25
  L 468.65 346.62
  Q 469.24 346.78 469.18 347.39
  Q 468.05 360.18 467.50 373.01
  C 467.28 378.15 471.80 382.37 476.42 383.97
  Q 492.97 389.70 509.47 395.58
  Q 511.15 396.17 511.75 396.01
  Q 532.71 390.11 546.70 384.72
  C 552.48 382.49 556.40 378.36 556.27 371.73
  Q 556.07 361.48 556.43 347.74
  A 1.05 1.03 75.5 0 1 556.92 346.89
  C 559.14 345.56 561.78 345.26 564.07 344.69
  Q 577.45 341.38 590.79 338.69
  Q 594.32 337.98 590.76 338.35
  Q 585.91 338.87 581.21 337.48
  Q 554.38 330.33 528.30 323.61
  C 523.76 322.44 515.56 318.75 510.85 319.97
  Q 482.92 327.17 454.93 333.90
  Q 451.70 334.67 448.36 336.06
  Z
  M 590.48 446.49
  C 581.28 426.82 557.87 414.11 537.61 409.83
  C 521.35 406.39 501.25 405.97 485.26 409.49
  Q 451.37 416.96 433.92 446.56
  A 0.22 0.21 60.3 0 1 433.52 446.45
  L 433.49 378.50
  Q 433.49 377.93 434.00 377.68
  C 442.65 373.51 444.64 364.25 439.24 356.83
  C 432.84 348.05 419.34 352.57 417.87 363.01
  Q 416.50 372.82 425.01 376.76
  Q 425.49 376.98 425.49 377.50
  Q 425.45 417.22 425.81 456.93
  Q 425.82 458.22 425.34 460.95
  Q 425.08 462.45 424.83 460.95
  C 423.55 453.36 424.19 448.63 414.54 447.97
  C 403.79 447.24 396.04 457.82 393.04 466.77
  Q 391.72 470.71 391.54 477.43
  Q 390.63 509.92 391.32 522.20
  Q 392.06 535.16 402.45 542.84
  C 407.98 546.92 414.87 544.31 415.29 537.45
  C 415.52 533.65 413.52 529.72 413.52 525.57
  Q 413.46 495.86 413.52 465.95
  Q 413.52 465.40 414.06 465.40
  C 470.02 464.94 520.58 464.49 597.08 465.20
  C 600.89 465.24 609.10 465.32 610.29 469.86
  Q 610.45 470.45 610.47 475.15
  Q 610.62 502.21 610.37 529.27
  C 610.34 532.62 608.82 534.75 606.90 537.23
  A 2.50 2.50 0.0 0 0 606.87 540.24
  Q 612.56 547.96 621.63 542.65
  C 631.63 536.79 633.01 526.02 632.74 515.23
  C 632.38 500.76 632.50 486.30 632.49 471.83
  C 632.48 466.82 629.11 461.38 626.59 457.22
  C 619.60 445.62 608.21 446.30 599.37 455.68
  Q 598.87 456.21 598.88 455.48
  L 599.28 379.12
  A 2.65 2.64 -16.3 0 1 600.51 376.89
  C 608.05 372.07 610.64 361.33 603.11 355.28
  C 589.73 344.55 576.41 360.97 584.95 373.50
  C 586.05 375.12 588.29 376.24 589.91 377.51
  Q 590.30 377.82 590.38 378.31
  Q 590.80 381.04 590.80 383.75
  Q 590.81 415.09 590.74 446.43
  Q 590.74 447.05 590.48 446.49
  Z
  M 571.8009 500.9667
  A 19.79 19.12 -12.5 0 0 548.3417 486.5832
  A 19.79 19.12 -12.5 0 0 533.1591 509.5333
  A 19.79 19.12 -12.5 0 0 556.6183 523.9168
  A 19.79 19.12 -12.5 0 0 571.8009 500.9667
  Z
  M 488.7125 502.1276
  A 20.02 19.15 -12.0 0 0 465.1485 487.5585
  A 20.02 19.15 -12.0 0 0 449.5475 510.4524
  A 20.02 19.15 -12.0 0 0 473.1115 525.0215
  A 20.02 19.15 -12.0 0 0 488.7125 502.1276
  Z
  M 316.94 548.03
  Q 339.45 569.87 363.53 589.97
  C 373.72 598.48 383.67 605.76 396.81 597.27
  Q 418.42 583.32 439.69 569.08
  A 0.63 0.63 0.0 0 1 440.38 569.07
  Q 464.51 584.15 488.96 598.31
  Q 500.45 604.96 505.80 606.08
  Q 516.71 608.37 527.23 602.50
  Q 547.12 591.37 571.38 575.67
  C 575.45 573.03 582.21 568.07 587.09 571.54
  C 600.23 580.87 616.34 597.87 634.17 590.56
  Q 638.60 588.74 646.97 581.17
  Q 675.45 555.40 703.06 528.70
  C 705.27 526.56 707.39 524.69 709.13 522.15
  A 0.31 0.31 0.0 0 0 708.69 521.73
  Q 680.87 542.23 652.01 560.70
  C 645.48 564.88 639.33 569.11 632.31 572.52
  C 630.13 573.59 627.42 573.32 625.51 572.27
  Q 611.67 564.73 596.95 552.54
  C 584.09 541.90 575.08 548.18 561.87 556.41
  Q 537.03 571.89 511.73 585.83
  A 2.32 2.32 0.0 0 1 509.41 585.79
  Q 479.81 567.98 449.95 549.78
  C 444.97 546.74 436.60 545.05 431.46 548.93
  Q 408.79 566.03 384.99 581.50
  Q 381.55 583.74 378.06 582.47
  C 354.22 573.76 330.19 557.20 311.02 540.78
  A 0.37 0.37 0.0 0 0 310.48 541.27
  C 312.31 543.94 314.87 546.03 316.94 548.03
  Z
  M 494.24 648.75
  A 0.59 0.58 76.2 0 1 493.39 648.23
  L 493.19 622.22
  Q 493.19 621.75 492.72 621.75
  L 475.51 621.75
  Q 475.03 621.75 475.03 622.24
  L 475.64 704.25
  Q 475.65 705.60 477.00 705.61
  L 493.24 705.77
  Q 493.75 705.78 493.75 705.26
  L 493.75 663.48
  A 0.87 0.86 78.9 0 1 494.28 662.68
  C 500.37 660.17 510.57 659.64 511.88 668.42
  Q 512.42 672.06 512.46 678.00
  Q 512.57 691.65 512.83 705.38
  A 0.43 0.43 0.0 0 0 513.27 705.81
  L 529.74 705.44
  Q 530.28 705.42 530.28 704.89
  Q 530.15 685.70 530.05 666.49
  C 529.95 647.01 509.05 641.21 494.24 648.75
  Z
  M 674.05 692.43
  C 674.10 708.09 689.95 706.89 700.45 705.90
  A 0.97 0.97 0.0 0 0 701.33 705.03
  L 701.96 698.95
  A 0.71 0.70 -77.9 0 0 701.49 698.22
  C 695.05 695.96 690.53 694.48 690.53 686.26
  Q 690.53 659.62 690.47 633.00
  C 690.45 627.38 689.92 623.48 683.54 623.24
  C 673.83 622.88 673.39 630.70 673.73 638.19
  C 674.54 656.17 673.99 674.42 674.05 692.43
  Z
  M 358.40 663.00
  C 360.17 650.20 356.81 629.56 340.24 627.74
  Q 332.04 626.83 319.49 627.06
  C 313.09 627.18 303.43 632.43 303.45 639.50
  Q 303.56 672.43 303.82 705.31
  A 0.45 0.45 0.0 0 0 304.27 705.75
  L 320.77 705.75
  A 0.51 0.51 0.0 0 0 321.28 705.23
  L 320.92 682.77
  A 1.06 1.05 0.3 0 1 322.01 681.70
  C 337.81 682.16 355.62 683.10 358.40 663.00
  Z
  M 562.59 681.43
  C 575.56 681.99 593.19 682.94 598.05 667.09
  C 603.02 650.85 598.23 627.41 576.99 627.26
  Q 565.39 627.18 553.79 627.28
  C 550.93 627.31 549.03 627.75 547.82 630.32
  C 545.46 635.32 545.86 642.80 545.85 648.25
  Q 545.76 676.62 545.73 705.02
  Q 545.73 705.54 546.25 705.59
  C 549.02 705.86 562.19 707.35 562.10 702.51
  Q 561.90 692.25 561.98 682.01
  A 0.59 0.58 1.0 0 1 562.59 681.43
  Z
  M 452.02 660.50
  L 461.03 660.50
  Q 461.56 660.50 461.55 659.97
  L 461.38 647.84
  A 0.55 0.55 0.0 0 0 460.84 647.29
  L 451.31 647.16
  Q 450.74 647.16 450.75 646.59
  C 450.83 641.85 451.94 635.94 446.53 633.96
  C 437.40 630.62 432.41 638.41 433.98 646.67
  A 0.49 0.49 0.0 0 1 433.50 647.25
  L 429.14 647.25
  Q 428.53 647.25 428.54 647.86
  L 428.70 659.85
  Q 428.71 660.50 429.35 660.50
  L 433.06 660.50
  Q 433.65 660.50 433.66 661.09
  Q 433.97 676.01 434.04 690.95
  C 434.11 708.70 449.38 707.32 462.20 706.35
  Q 462.84 706.30 462.82 705.66
  L 462.56 695.33
  Q 462.54 694.74 461.95 694.76
  C 451.20 695.11 452.00 688.18 451.73 679.42
  Q 451.44 670.21 451.50 661.01
  Q 451.51 660.50 452.02 660.50
  Z
  M 372.44 664.19
  Q 379.18 664.11 383.89 662.42
  C 387.87 660.99 394.50 659.05 397.88 662.72
  Q 400.76 665.84 399.49 670.81
  Q 399.37 671.27 398.91 671.40
  C 395.73 672.30 391.59 671.70 386.98 672.05
  C 373.55 673.06 364.60 680.56 367.35 695.05
  C 369.82 708.05 382.93 708.29 393.69 706.81
  Q 394.51 706.70 395.07 706.08
  Q 395.40 705.72 395.89 705.71
  L 417.25 705.48
  Q 417.86 705.47 417.85 704.86
  Q 417.61 685.91 417.34 666.96
  C 417.01 644.12 386.95 643.41 372.71 651.80
  A 2.42 2.42 0.0 0 0 371.51 653.89
  L 371.50 663.26
  Q 371.50 664.21 372.44 664.19
  Z
  M 638.94 660.04
  C 645.14 660.24 644.57 666.55 643.21 670.75
  Q 643.06 671.24 642.55 671.30
  C 634.91 672.20 626.97 671.31 619.25 671.34
  C 609.78 671.37 604.59 690.56 609.34 697.20
  Q 615.32 705.53 626.33 705.36
  Q 642.89 705.09 659.29 704.91
  A 1.25 1.24 89.8 0 0 660.52 703.66
  C 660.46 692.74 660.33 681.75 660.70 670.81
  C 661.65 642.30 636.91 647.07 615.60 647.32
  Q 615.03 647.33 615.03 647.90
  L 614.94 662.30
  Q 614.93 662.90 615.52 662.74
  C 618.01 662.07 620.46 661.04 622.81 660.75
  Q 630.85 659.78 638.94 660.04
  Z"
/>
<path fill="#73d6ef" d="
  M 581.21 337.48
  Q 563.42 340.41 548.81 341.62
  Q 544.93 341.95 542.13 344.16
  A 2.08 2.06 20.8 0 1 541.23 344.56
  C 532.53 346.10 516.57 347.87 513.02 352.40
  C 512.16 353.49 511.18 354.13 509.90 353.59
  Q 509.43 353.39 509.25 352.91
  L 508.35 350.48
  Q 508.16 349.96 507.62 349.84
  L 448.36 336.06
  Q 451.70 334.67 454.93 333.90
  Q 482.92 327.17 510.85 319.97
  C 515.56 318.75 523.76 322.44 528.30 323.61
  Q 554.38 330.33 581.21 337.48
  Z"
/>
<path fill="#fdfdfd" d="
  M 448.36 336.06
  L 507.62 349.84
  Q 508.16 349.96 508.35 350.48
  L 509.25 352.91
  Q 509.43 353.39 509.90 353.59
  C 511.18 354.13 512.16 353.49 513.02 352.40
  C 516.57 347.87 532.53 346.10 541.23 344.56
  A 2.08 2.06 20.8 0 0 542.13 344.16
  Q 544.93 341.95 548.81 341.62
  Q 563.42 340.41 581.21 337.48
  Q 585.91 338.87 590.76 338.35
  Q 594.32 337.98 590.79 338.69
  Q 577.45 341.38 564.07 344.69
  C 561.78 345.26 559.14 345.56 556.92 346.89
  A 1.05 1.03 75.5 0 0 556.43 347.74
  Q 556.07 361.48 556.27 371.73
  C 556.40 378.36 552.48 382.49 546.70 384.72
  Q 532.71 390.11 511.75 396.01
  Q 511.15 396.17 509.47 395.58
  Q 492.97 389.70 476.42 383.97
  C 471.80 382.37 467.28 378.15 467.50 373.01
  Q 468.05 360.18 469.18 347.39
  Q 469.24 346.78 468.65 346.62
  L 436.85 338.25
  A 0.10 0.10 0.0 0 1 436.86 338.05
  L 448.36 336.06
  Z"
/>
<path fill="#fdfdfd" d="
  M 590.74 446.43
  Q 590.81 415.09 590.80 383.75
  Q 590.80 381.04 590.38 378.31
  Q 590.30 377.82 589.91 377.51
  C 588.29 376.24 586.05 375.12 584.95 373.50
  C 576.41 360.97 589.73 344.55 603.11 355.28
  C 610.64 361.33 608.05 372.07 600.51 376.89
  A 2.65 2.64 -16.3 0 0 599.28 379.12
  L 598.88 455.48
  Q 598.87 456.21 599.37 455.68
  C 608.21 446.30 619.60 445.62 626.59 457.22
  C 629.11 461.38 632.48 466.82 632.49 471.83
  C 632.50 486.30 632.38 500.76 632.74 515.23
  C 633.01 526.02 631.63 536.79 621.63 542.65
  Q 612.56 547.96 606.87 540.24
  A 2.50 2.50 0.0 0 1 606.90 537.23
  C 608.82 534.75 610.34 532.62 610.37 529.27
  Q 610.62 502.21 610.47 475.15
  Q 610.45 470.45 610.29 469.86
  C 609.10 465.32 600.89 465.24 597.08 465.20
  C 520.58 464.49 470.02 464.94 414.06 465.40
  Q 413.52 465.40 413.52 465.95
  Q 413.46 495.86 413.52 525.57
  C 413.52 529.72 415.52 533.65 415.29 537.45
  C 414.87 544.31 407.98 546.92 402.45 542.84
  Q 392.06 535.16 391.32 522.20
  Q 390.63 509.92 391.54 477.43
  Q 391.72 470.71 393.04 466.77
  C 396.04 457.82 403.79 447.24 414.54 447.97
  C 424.19 448.63 423.55 453.36 424.83 460.95
  Q 425.08 462.45 425.34 460.95
  Q 425.82 458.22 425.81 456.93
  Q 425.45 417.22 425.49 377.50
  Q 425.49 376.98 425.01 376.76
  Q 416.50 372.82 417.87 363.01
  C 419.34 352.57 432.84 348.05 439.24 356.83
  C 444.64 364.25 442.65 373.51 434.00 377.68
  Q 433.49 377.93 433.49 378.50
  L 433.52 446.45
  A 0.22 0.21 60.3 0 0 433.92 446.56
  Q 451.37 416.96 485.26 409.49
  C 501.25 405.97 521.35 406.39 537.61 409.83
  C 557.87 414.11 581.28 426.82 590.48 446.49
  Q 590.74 447.05 590.74 446.43
  Z"
/>
<path fill="#11152f" d="
  M 571.8009 500.9667
  A 19.79 19.12 -12.5 0 1 556.6183 523.9168
  A 19.79 19.12 -12.5 0 1 533.1591 509.5333
  A 19.79 19.12 -12.5 0 1 548.3417 486.5832
  A 19.79 19.12 -12.5 0 1 571.8009 500.9667
  Z
  M 559.4837 499.2334
  A 9.74 9.12 -38.3 0 0 546.1876 498.1128
  A 9.74 9.12 -38.3 0 0 544.1963 511.3066
  A 9.74 9.12 -38.3 0 0 557.4924 512.4272
  A 9.74 9.12 -38.3 0 0 559.4837 499.2334
  Z"
/>
<path fill="#11152f" d="
  M 488.7125 502.1276
  A 20.02 19.15 -12.0 0 1 473.1115 525.0215
  A 20.02 19.15 -12.0 0 1 449.5475 510.4524
  A 20.02 19.15 -12.0 0 1 465.1485 487.5585
  A 20.02 19.15 -12.0 0 1 488.7125 502.1276
  Z
  M 477.2011 503.1828
  A 10.10 9.13 -21.9 0 0 464.4246 498.4789
  A 10.10 9.13 -21.9 0 0 458.4589 510.7172
  A 10.10 9.13 -21.9 0 0 471.2354 515.4211
  A 10.10 9.13 -21.9 0 0 477.2011 503.1828
  Z"
/>
<ellipse fill="#5c71c2" cx="0.00" cy="0.00" transform="translate(551.84,505.27) rotate(-38.3)" rx="9.74" ry="9.12"/>
<ellipse fill="#5c71c2" cx="0.00" cy="0.00" transform="translate(467.83,506.95) rotate(-21.9)" rx="10.10" ry="9.13"/>
<path fill="#fdfdfd" d="
  M 316.94 548.03
  C 314.87 546.03 312.31 543.94 310.48 541.27
  A 0.37 0.37 0.0 0 1 311.02 540.78
  C 330.19 557.20 354.22 573.76 378.06 582.47
  Q 381.55 583.74 384.99 581.50
  Q 408.79 566.03 431.46 548.93
  C 436.60 545.05 444.97 546.74 449.95 549.78
  Q 479.81 567.98 509.41 585.79
  A 2.32 2.32 0.0 0 0 511.73 585.83
  Q 537.03 571.89 561.87 556.41
  C 575.08 548.18 584.09 541.90 596.95 552.54
  Q 611.67 564.73 625.51 572.27
  C 627.42 573.32 630.13 573.59 632.31 572.52
  C 639.33 569.11 645.48 564.88 652.01 560.70
  Q 680.87 542.23 708.69 521.73
  A 0.31 0.31 0.0 0 1 709.13 522.15
  C 707.39 524.69 705.27 526.56 703.06 528.70
  Q 675.45 555.40 646.97 581.17
  Q 638.60 588.74 634.17 590.56
  C 616.34 597.87 600.23 580.87 587.09 571.54
  C 582.21 568.07 575.45 573.03 571.38 575.67
  Q 547.12 591.37 527.23 602.50
  Q 516.71 608.37 505.80 606.08
  Q 500.45 604.96 488.96 598.31
  Q 464.51 584.15 440.38 569.07
  A 0.63 0.63 0.0 0 0 439.69 569.08
  Q 418.42 583.32 396.81 597.27
  C 383.67 605.76 373.72 598.48 363.53 589.97
  Q 339.45 569.87 316.94 548.03
  Z"
/>
<path fill="#fdfdfd" d="
  M 494.24 648.75
  C 509.05 641.21 529.95 647.01 530.05 666.49
  Q 530.15 685.70 530.28 704.89
  Q 530.28 705.42 529.74 705.44
  L 513.27 705.81
  A 0.43 0.43 0.0 0 1 512.83 705.38
  Q 512.57 691.65 512.46 678.00
  Q 512.42 672.06 511.88 668.42
  C 510.57 659.64 500.37 660.17 494.28 662.68
  A 0.87 0.86 78.9 0 0 493.75 663.48
  L 493.75 705.26
  Q 493.75 705.78 493.24 705.77
  L 477.00 705.61
  Q 475.65 705.60 475.64 704.25
  L 475.03 622.24
  Q 475.03 621.75 475.51 621.75
  L 492.72 621.75
  Q 493.19 621.75 493.19 622.22
  L 493.39 648.23
  A 0.59 0.58 76.2 0 0 494.24 648.75
  Z"
/>
<path fill="#73d6ef" d="
  M 700.45 705.90
  C 689.95 706.89 674.10 708.09 674.05 692.43
  C 673.99 674.42 674.54 656.17 673.73 638.19
  C 673.39 630.70 673.83 622.88 683.54 623.24
  C 689.92 623.48 690.45 627.38 690.47 633.00
  Q 690.53 659.62 690.53 686.26
  C 690.53 694.48 695.05 695.96 701.49 698.22
  A 0.71 0.70 -77.9 0 1 701.96 698.95
  L 701.33 705.03
  A 0.97 0.97 0.0 0 1 700.45 705.90
  Z"
/>
<path fill="#fdfdfd" d="
  M 340.24 627.74
  C 356.81 629.56 360.17 650.20 358.40 663.00
  C 355.62 683.10 337.81 682.16 322.01 681.70
  A 1.06 1.05 0.3 0 0 320.92 682.77
  L 321.28 705.23
  A 0.51 0.51 0.0 0 1 320.77 705.75
  L 304.27 705.75
  A 0.45 0.45 0.0 0 1 303.82 705.31
  Q 303.56 672.43 303.45 639.50
  C 303.43 632.43 313.09 627.18 319.49 627.06
  Q 332.04 626.83 340.24 627.74
  Z
  M 322.05 643.46
  L 321.93 666.38
  A 0.92 0.92 0.0 0 0 322.85 667.31
  L 331.62 667.35
  A 8.88 8.47 -89.7 0 0 340.13 658.52
  L 340.17 651.52
  A 8.88 8.47 -89.7 0 0 331.74 642.59
  L 322.97 642.55
  A 0.92 0.92 0.0 0 0 322.05 643.46
  Z"
/>
<path fill="#73d6ef" d="
  M 561.98 682.01
  Q 561.90 692.25 562.10 702.51
  C 562.19 707.35 549.02 705.86 546.25 705.59
  Q 545.73 705.54 545.73 705.02
  Q 545.76 676.62 545.85 648.25
  C 545.86 642.80 545.46 635.32 547.82 630.32
  C 549.03 627.75 550.93 627.31 553.79 627.28
  Q 565.39 627.18 576.99 627.26
  C 598.23 627.41 603.02 650.85 598.05 667.09
  C 593.19 682.94 575.56 681.99 562.59 681.43
  A 0.59 0.58 1.0 0 0 561.98 682.01
  Z
  M 562.36 642.25
  L 562.36 667.59
  A 0.87 0.87 0.0 0 0 563.23 668.46
  L 573.30 668.46
  A 10.72 9.92 90.0 0 0 583.22 657.74
  L 583.22 652.10
  A 10.72 9.92 90.0 0 0 573.30 641.38
  L 563.23 641.38
  A 0.87 0.87 0.0 0 0 562.36 642.25
  Z"
/>
<path fill="#fdfdfd" d="
  M 451.50 661.01
  Q 451.44 670.21 451.73 679.42
  C 452.00 688.18 451.20 695.11 461.95 694.76
  Q 462.54 694.74 462.56 695.33
  L 462.82 705.66
  Q 462.84 706.30 462.20 706.35
  C 449.38 707.32 434.11 708.70 434.04 690.95
  Q 433.97 676.01 433.66 661.09
  Q 433.65 660.50 433.06 660.50
  L 429.35 660.50
  Q 428.71 660.50 428.70 659.85
  L 428.54 647.86
  Q 428.53 647.25 429.14 647.25
  L 433.50 647.25
  A 0.49 0.49 0.0 0 0 433.98 646.67
  C 432.41 638.41 437.40 630.62 446.53 633.96
  C 451.94 635.94 450.83 641.85 450.75 646.59
  Q 450.74 647.16 451.31 647.16
  L 460.84 647.29
  A 0.55 0.55 0.0 0 1 461.38 647.84
  L 461.55 659.97
  Q 461.56 660.50 461.03 660.50
  L 452.02 660.50
  Q 451.51 660.50 451.50 661.01
  Z"
/>
<path fill="#5c71c2" d="
  M 562.36 642.25
  A 0.87 0.87 0.0 0 1 563.23 641.38
  L 573.30 641.38
  A 10.72 9.92 -90.0 0 1 583.22 652.10
  L 583.22 657.74
  A 10.72 9.92 -90.0 0 1 573.30 668.46
  L 563.23 668.46
  A 0.87 0.87 0.0 0 1 562.36 667.59
  L 562.36 642.25
  Z"
/>
<path fill="#5c71c2" d="
  M 322.05 643.46
  A 0.92 0.92 0.0 0 1 322.97 642.55
  L 331.74 642.59
  A 8.88 8.47 -89.7 0 1 340.17 651.52
  L 340.13 658.52
  A 8.88 8.47 -89.7 0 1 331.62 667.35
  L 322.85 667.31
  A 0.92 0.92 0.0 0 1 321.93 666.38
  L 322.05 643.46
  Z"
/>
<path fill="#fdfdfd" d="
  M 372.44 664.19
  Q 371.50 664.21 371.50 663.26
  L 371.51 653.89
  A 2.42 2.42 0.0 0 1 372.71 651.80
  C 386.95 643.41 417.01 644.12 417.34 666.96
  Q 417.61 685.91 417.85 704.86
  Q 417.86 705.47 417.25 705.48
  L 395.89 705.71
  Q 395.40 705.72 395.07 706.08
  Q 394.51 706.70 393.69 706.81
  C 382.93 708.29 369.82 708.05 367.35 695.05
  C 364.60 680.56 373.55 673.06 386.98 672.05
  C 391.59 671.70 395.73 672.30 398.91 671.40
  Q 399.37 671.27 399.49 670.81
  Q 400.76 665.84 397.88 662.72
  C 394.50 659.05 387.87 660.99 383.89 662.42
  Q 379.18 664.11 372.44 664.19
  Z
  M 386.94 693.41
  Q 393.91 696.33 400.47 691.91
  A 0.90 0.88 -18.6 0 0 400.86 691.14
  L 400.46 681.37
  Q 400.44 680.88 399.95 680.89
  C 395.52 680.92 385.59 682.30 383.51 686.96
  C 382.08 690.17 384.07 692.21 386.94 693.41
  Z"
/>
<path fill="#73d6ef" d="
  M 638.94 660.04
  Q 630.85 659.78 622.81 660.75
  C 620.46 661.04 618.01 662.07 615.52 662.74
  Q 614.93 662.90 614.94 662.30
  L 615.03 647.90
  Q 615.03 647.33 615.60 647.32
  C 636.91 647.07 661.65 642.30 660.70 670.81
  C 660.33 681.75 660.46 692.74 660.52 703.66
  A 1.25 1.24 89.8 0 1 659.29 704.91
  Q 642.89 705.09 626.33 705.36
  Q 615.32 705.53 609.34 697.20
  C 604.59 690.56 609.78 671.37 619.25 671.34
  C 626.97 671.31 634.91 672.20 642.55 671.30
  Q 643.06 671.24 643.21 670.75
  C 644.57 666.55 645.14 660.24 638.94 660.04
  Z
  M 643.57 692.43
  L 642.97 680.61
  A 0.23 0.23 0.0 0 0 642.73 680.39
  L 642.62 680.39
  A 16.36 1.03 -2.9 0 0 626.33 682.25
  L 626.85 692.48
  A 16.36 1.03 -2.9 0 0 643.24 692.68
  L 643.35 692.67
  A 0.23 0.23 0.0 0 0 643.57 692.43
  Z"
/>
<path fill="#5c71c2" d="
  M 643.57 692.43
  A 0.23 0.23 0.0 0 1 643.35 692.67
  L 643.24 692.68
  A 16.36 1.03 -2.9 0 1 626.85 692.48
  L 626.33 682.25
  A 16.36 1.03 -2.9 0 1 642.62 680.39
  L 642.73 680.39
  A 0.23 0.23 0.0 0 1 642.97 680.61
  L 643.57 692.43
  Z"
/>
<path fill="#5c71c2" d="
  M 386.94 693.41
  C 384.07 692.21 382.08 690.17 383.51 686.96
  C 385.59 682.30 395.52 680.92 399.95 680.89
  Q 400.44 680.88 400.46 681.37
  L 400.86 691.14
  A 0.90 0.88 -18.6 0 1 400.47 691.91
  Q 393.91 696.33 386.94 693.41
  Z"
/>
</svg>
